<?xml version="1.0" standalone="no"?>
<!DOCTYPE svg PUBLIC "-//W3C//DTD SVG 20010904//EN"
 "http://www.w3.org/TR/2001/REC-SVG-20010904/DTD/svg10.dtd">
<svg version="1.0" xmlns="http://www.w3.org/2000/svg"
 width="260.000000pt" height="260.000000pt" viewBox="0 0 260.000000 260.000000"
 preserveAspectRatio="xMidYMid meet">
<metadata>
Created by potrace 1.11, written by Peter Selinger 2001-2013
</metadata>
<g transform="translate(0.000000,260.000000) scale(0.100000,-0.100000)"
fill="#000000" stroke="none">
<path d="M1550 2423 c-8 -141 -35 -204 -102 -239 -27 -14 -32 -12 -118 40
-101 61 -186 82 -295 74 -63 -6 -153 -41 -195 -78 -13 -11 -28 -20 -34 -21
-147 -7 -187 -16 -275 -57 -100 -47 -201 -170 -217 -265 -4 -23 1 -16 19 24
32 75 60 113 118 159 66 52 147 81 244 87 l80 6 0 -61 c0 -70 14 -91 87 -128
46 -23 97 -37 433 -115 206 -47 297 -79 378 -133 50 -34 123 -113 113 -124 -2
-2 -118 35 -258 81 -139 47 -266 88 -283 91 -16 4 -41 9 -55 12 -14 4 -83 8
-155 10 -173 5 -267 -21 -343 -97 -50 -49 -66 -86 -67 -154 0 -72 31 -132 99
-192 70 -62 130 -87 349 -148 32 -9 67 -25 77 -35 11 -11 20 -16 20 -11 0 5
-17 23 -37 41 -112 95 -150 146 -159 213 -16 131 159 169 261 56 91 -101 113
-239 69 -443 -9 -39 -17 -80 -20 -91 -2 -11 -13 -56 -23 -100 -30 -122 -36
-179 -36 -320 1 -109 5 -141 24 -198 33 -98 100 -167 162 -167 19 0 21 4 16
36 -3 20 -19 52 -34 71 -154 192 -179 299 -128 546 3 15 28 100 55 189 28 88
50 163 50 165 0 2 5 1 10 -2 6 -4 41 -6 79 -6 244 1 477 161 484 333 l2 43 83
-2 c188 -4 302 76 302 212 0 55 -29 123 -66 155 l-29 25 22 -25 c30 -35 43
-73 43 -129 0 -110 -100 -187 -253 -196 -96 -5 -109 -1 -130 45 -25 54 -81
106 -152 141 -35 17 -157 54 -295 88 -258 65 -351 95 -453 148 -82 44 -117 82
-117 130 l0 34 48 -5 c26 -3 94 -12 152 -20 58 -8 152 -13 210 -11 l105 3 70
-53 c102 -78 153 -92 215 -60 37 19 39 37 5 31 -51 -9 -145 48 -145 89 0 13
16 60 35 104 19 43 35 85 35 92 0 24 -39 94 -60 107 -11 7 -20 9 -20 5z m-334
-163 c52 -26 148 -97 137 -102 -24 -14 -185 -5 -343 18 -25 4 -55 7 -67 7 -31
1 -29 18 6 51 58 56 180 68 267 26z m318 -142 c10 -38 7 -40 -25 -17 -23 16
-28 24 -17 30 22 14 35 10 42 -13z m-246 -392 c31 -9 161 -52 289 -98 l231
-82 -3 -50 c-9 -128 -86 -253 -188 -304 -85 -42 -204 -26 -226 31 -5 12 -14
56 -20 97 -15 95 -43 153 -103 212 -142 139 -398 92 -398 -73 0 -74 36 -142
103 -190 22 -16 35 -29 28 -29 -22 0 -142 64 -168 89 -58 58 -79 163 -48 239
20 46 78 108 128 133 88 46 252 57 375 25z"/>
</g>
</svg>
